<svg xmlns="http://www.w3.org/2000/svg" width="16" height="16" viewBox="0 0 16 16">
    <rect id="frame" width="16" height="16" fill="none"/>
    <g fill="none" transform="translate(1, 1) scale(7) scale(0.005)">
        <circle cx="200" cy="200" r="200" fill="#F5F555" opacity="0.8333"/>
        <g fill="none" fill-rule="evenodd" transform="translate(36, 100) scale(80, 125) translate(1.8, 0.2)">
            <path stroke="#0000FF" stroke-width="0.32" d="
        M 0 0
        H 2
        M 1 0
        L 1 1
        M 0 0.45
        L 2 0.45
        L 2 1
        L 0 1
        z
        "/>
        </g>
        <g fill="none" transform="translate(36, 100) scale(100)">
            <path stroke="#FF0000" stroke-width="0.24" d="
        M 0 0.5
        C 0.25 0.25 0.5666 0 0.8166 0.25
        C 0.8166 0.25 1.04 0.5 0.975 1
        C 0.975 1.5 0.9833 2 1.4833 2
        C 1.4833 2 2 2 3.25 2
        M 0.94 0.7
        L 0.0555 2.08
        "/>
        </g>
    </g>
</svg>